<svg width="90" height="90" viewBox="0 0 90 90" fill="none" xmlns="http://www.w3.org/2000/svg">
<path d="M87.7605 14.8223C87.5466 11.5022 87.8929 8.25169 87.8522 8.27158C87.8114 8.29146 85.8664 9.21591 82.7198 11.2239C79.6851 13.1722 75.4387 16.2139 73.4428 18.9674C70.2248 23.4207 71.5283 27.5061 74.7666 29.0071C76.0497 22.8441 79.3796 20.7368 83.7279 15.7666C81.8134 20.6274 78.0966 24.7328 78.1475 29.6135C82.5874 28.9475 86.9865 26.7606 87.954 23.6095C88.5242 21.6811 87.8623 18.2119 87.7605 14.8223Z" fill="#F2F2F2"/>
<path d="M42.9738 6.55077C43.1877 3.23069 42.8415 -0.0197899 42.8822 9.07315e-05C42.9229 0.0199714 44.8679 0.944393 48.0146 2.95234C51.0492 4.90065 55.2956 7.9424 57.2916 10.6959C60.5095 15.1491 59.206 19.2346 55.9677 20.7356C54.6846 14.5726 51.3547 12.4652 47.0064 7.49508C48.9209 12.3559 52.6378 16.4613 52.5869 21.342C48.147 20.676 43.7478 18.4891 42.7804 15.338C42.1999 13.4096 42.872 9.94042 42.9738 6.55077Z" fill="#F2F2F2"/>
<path d="M65.8452 49.1353V39.5826L41.6904 49.1353V39.5826L18.9918 48.5587L16.5988 14.7119H5.31568L0 90H17.5255H21.9145H41.6904H65.8452H90V39.5826L65.8452 49.1353ZM32.556 82.4155H24.165V74.2247H32.556V82.4155ZM32.556 67.5249H24.165V59.334H32.556V67.5249ZM56.2016 82.4155H47.8106V74.2247H56.2016V82.4155ZM56.2016 67.5249H47.8106V59.334H56.2016V67.5249ZM71.4562 59.334H79.8472V67.5249H71.4562V59.334ZM80.2342 82.4155H71.8432V74.2247H80.2342V82.4155Z" fill="#F2F2F2"/>
<path d="M58.8782 24.7412H46.699L45.4668 44.7909L59.7642 39.1348L58.8782 24.7412Z" fill="#F2F2F2"/>
<path d="M83.0941 32.5547H70.9148L70.1816 44.5725L83.5116 39.3042L83.0941 32.5547Z" fill="#F2F2F2"/>
</svg>
