<svg width="90" height="90" viewBox="0 0 90 90" fill="none" xmlns="http://www.w3.org/2000/svg">
<path d="M16.9278 22.6734C20.0642 22.6734 22.6037 20.2126 22.6037 17.1733V5.50009C22.6037 2.46084 20.0642 0 16.9278 0C13.7915 0 11.252 2.46084 11.252 5.50009V17.1733C11.252 20.2126 13.7915 22.6734 16.9278 22.6734Z" fill="#F2F2F2"/>
<path d="M82.5117 12.252V17.1736C82.5117 22.2005 78.2901 26.2914 73.1026 26.2914C67.9151 26.2914 63.6935 22.2005 63.6935 17.1736V12.252H26.3282V17.1736C26.3282 22.2005 22.1066 26.2914 16.9191 26.2914C11.7316 26.2914 7.50996 22.2005 7.50996 17.1736V12.252H0V89.9999H90V12.252H82.5117ZM48.1635 79.1364L47.6317 72.5952L57.9091 62.3312L47.3713 69.3667L46.8937 63.4775L54.3603 56.747C54.3603 56.747 54.3711 56.7364 54.3603 56.7259C54.3603 56.7154 54.3494 56.7154 54.3386 56.7154L46.6767 60.7432L46.2209 55.1379L52.5805 50.1111C52.5913 50.1111 52.5913 50.1006 52.5805 50.0901C52.5805 50.0795 52.5696 50.0795 52.5588 50.0795L46.0473 53.0662L45.0163 40.2782L43.9744 53.1188L37.0939 50.3109L43.8116 55.1379L43.3558 60.7537L35.1513 56.4315L43.1388 63.4985L42.6613 69.3561L32.1235 62.3207L42.4008 72.5847L41.8691 79.1259C34.0335 77.6957 28.108 71.0388 28.108 63.0358C28.108 53.9916 45.0163 30.2666 45.0163 30.2666C45.0163 30.2666 61.9245 53.9811 61.9245 63.0358C61.9245 71.0493 55.999 77.7062 48.1635 79.1364Z" fill="#F2F2F2"/>
<path d="M73.1036 22.6734C76.24 22.6734 78.7795 20.2126 78.7795 17.1733V5.50009C78.7795 2.46084 76.24 0 73.1036 0C69.9673 0 67.4277 2.46084 67.4277 5.50009V17.1733C67.4277 20.2126 69.9673 22.6734 73.1036 22.6734Z" fill="#F2F2F2"/>
</svg>
