<svg width="100" height="90" viewBox="0 0 100 90" fill="none" xmlns="http://www.w3.org/2000/svg">
<path d="M1.0293 40.8652V55.3836H28.6034V40.8652H1.0293ZM11.3577 50.4979C11.5704 50.8832 12.1059 51.099 12.8394 51.099V53.0795C11.4164 53.0795 10.2794 52.5015 9.72186 51.4843C9.16436 50.4748 9.25239 49.1493 9.96393 47.8547L10.3307 47.192L9.34041 46.5909L12.1866 45.8819L13.0228 48.8257L11.9592 48.1784L11.5924 48.8411C11.2403 49.5115 11.1449 50.1203 11.3577 50.4979ZM13.5877 45.2423L11.9518 44.2482C12.6634 42.9536 13.7124 42.2061 14.8274 42.2061C15.9423 42.2061 16.9913 42.9459 17.7029 44.2482L18.1797 45.119L19.3533 44.5102L18.3337 47.3924L15.5389 46.483L16.4852 45.9898L16.0671 45.2269C15.7003 44.5642 15.2528 44.1789 14.8274 44.1789C14.4019 44.1789 13.9544 44.5719 13.5877 45.2423ZM19.9255 51.492C19.368 52.5015 18.231 53.0872 16.8079 53.0872H16.3018V54.3279L14.2919 52.0931L16.3018 49.8583V51.099H16.8079C17.5415 51.099 18.077 50.8755 18.2897 50.4979C18.5024 50.1203 18.4144 49.5115 18.0476 48.8488L19.6835 47.8547C20.395 49.157 20.483 50.4748 19.9255 51.492Z" fill="#F2F2F2"/>
<path d="M0.264638 58.1572C0.264638 58.1572 -0.0141115 58.4808 0.000559445 59.0665V59.8911V59.9373V60.7618C-0.0141115 61.3475 0.264638 61.6712 0.264638 61.6712L0.888159 62.2799L0.264638 62.8887C0.264638 62.8887 -0.0141115 63.2124 0.000559445 63.7981V64.6226V64.6689V65.4934C-0.0141115 66.0791 0.264638 66.4027 0.264638 66.4027L0.888159 67.0115L0.264638 67.6203C0.264638 67.6203 -0.0141115 67.944 0.000559445 68.5296V69.3542V69.4004V70.225C-0.0141115 70.8107 0.264638 71.1343 0.264638 71.1343L0.888159 71.7431L0.264638 72.3519C0.264638 72.3519 -0.0141115 72.6755 0.000559445 73.2612V74.0858V74.132V74.9566C-0.0141115 75.5422 0.264638 75.8659 0.264638 75.8659L0.880827 76.4747C0.873492 76.6134 0.873485 76.7521 0.873485 76.8985V81.4683C0.873485 86.1768 4.54123 89.999 9.06723 89.999H20.4813C25.0073 89.999 28.675 86.1768 28.675 81.4683V76.8985C28.675 76.7598 28.6677 76.6134 28.6677 76.4747L29.2838 75.8659C29.2838 75.8659 29.5626 75.5422 29.5479 74.9566V74.132V74.0858V73.2612C29.5626 72.6755 29.2838 72.3519 29.2838 72.3519L28.6603 71.7431L29.2838 71.1343C29.2838 71.1343 29.5626 70.8107 29.5479 70.225V69.4004V69.3542V68.5296C29.5626 67.944 29.2838 67.6203 29.2838 67.6203L28.6603 67.0115L29.2838 66.4027C29.2838 66.4027 29.5626 66.0791 29.5479 65.4934V64.6689V64.6226V63.7981C29.5626 63.2124 29.2838 62.8887 29.2838 62.8887L28.6603 62.2799L29.2838 61.6712C29.2838 61.6712 29.5626 61.3475 29.5479 60.7618V59.9373V59.8911V59.0665C29.5626 58.4808 29.2838 58.1572 29.2838 58.1572L28.7777 57.6562H0.770788L0.264638 58.1572Z" fill="#F2F2F2"/>
<path d="M28.6603 38.5847L29.2838 37.9759C29.2838 37.9759 29.5626 37.6523 29.5479 37.0666V36.2421V36.1958V35.3713C29.5626 34.7856 29.2838 34.4619 29.2838 34.4619L28.6603 33.8531L29.2838 33.2443C29.2838 33.2443 29.5626 32.9207 29.5479 32.335V31.5105V31.4642V30.6397C29.5626 30.054 29.2838 29.7303 29.2838 29.7303L28.6603 29.1215H28.6677L29.4526 27.9811C29.4526 22.3247 27.4353 20.7373 27.4353 20.7373L19.3663 12.6766V10.1875H20.1438C20.6866 10.1875 21.1268 9.84846 21.1268 9.43233C21.1268 9.0162 20.6866 8.67712 20.1438 8.67712H20.1365C20.892 8.12227 21.3909 7.20526 21.3909 6.16493V1.82636C21.3909 0.816849 18.4273 0 14.7742 0C11.1212 0 8.15763 0.816849 8.15763 1.82636V6.16493C8.15763 7.20526 8.65644 8.12227 9.41199 8.67712H9.40466C8.86184 8.67712 8.42171 9.0162 8.42171 9.43233C8.42171 9.84846 8.86184 10.1875 9.40466 10.1875H10.1896V12.6766L2.12052 20.7373C2.12052 20.7373 0.103256 22.3324 0.103256 27.9811L0.888159 29.1215L0.264638 29.7303C0.264638 29.7303 -0.0141115 30.054 0.000559445 30.6397V31.4642V31.5105V32.335C-0.0141115 32.9207 0.264638 33.2443 0.264638 33.2443L0.888159 33.8531L0.264638 34.4619C0.264638 34.4619 -0.0141115 34.7856 0.000559445 35.3713V36.1958V36.2421V37.0666C-0.0141115 37.6523 0.264638 37.9759 0.264638 37.9759L0.888159 38.5847L0.873485 38.6001H28.6823L28.6603 38.5847Z" fill="#F2F2F2"/>
<path d="M36.2676 40.8652V55.3836H63.8417V40.8652H36.2676ZM46.596 50.4979C46.8087 50.8832 47.3442 51.099 48.0777 51.099V53.0795C46.6546 53.0795 45.5176 52.5015 44.9601 51.4843C44.4026 50.4748 44.4907 49.1493 45.2022 47.8547L45.569 47.192L44.5787 46.5909L47.4249 45.8819L48.2611 48.8257L47.1975 48.1784L46.8307 48.8411C46.4786 49.5115 46.3832 50.1203 46.596 50.4979ZM48.8259 45.2423L47.1901 44.2482C47.9017 42.9536 48.9506 42.2061 50.0656 42.2061C51.1806 42.2061 52.2296 42.9459 52.9411 44.2482L53.418 45.119L54.5916 44.5102L53.572 47.3924L50.7772 46.483L51.7235 45.9898L51.3053 45.2269C50.9386 44.5642 50.4911 44.1789 50.0656 44.1789C49.6402 44.1789 49.1927 44.5719 48.8259 45.2423ZM55.1638 51.492C54.6063 52.5015 53.4693 53.0872 52.0462 53.0872H51.5401V54.3279L49.5301 52.0931L51.5401 49.8583V51.099H52.0462C52.7798 51.099 53.3153 50.8755 53.528 50.4979C53.7407 50.1203 53.6527 49.5115 53.2859 48.8488L54.9217 47.8547C55.6333 49.157 55.7213 50.4748 55.1638 51.492Z" fill="#F2F2F2"/>
<path d="M35.5029 58.1581C35.5029 58.1581 35.2242 58.4818 35.2388 59.0675V59.892V59.9383V60.7628C35.2242 61.3485 35.5029 61.6722 35.5029 61.6722L36.1264 62.2809L35.5029 62.8897C35.5029 62.8897 35.2242 63.2134 35.2388 63.799V64.6236V64.6698V65.4944C35.2242 66.0801 35.5029 66.4037 35.5029 66.4037L36.1264 67.0125L35.5029 67.6213C35.5029 67.6213 35.2242 67.945 35.2388 68.5306V69.3552V69.4014V70.226C35.2242 70.8117 35.5029 71.1353 35.5029 71.1353L36.1264 71.7441L35.5029 72.3529C35.5029 72.3529 35.2242 72.6765 35.2388 73.2622V74.0868V74.133V74.9576C35.2242 75.5432 35.5029 75.8669 35.5029 75.8669L36.1191 76.4757C36.1118 76.6144 36.1118 76.7531 36.1118 76.8995V81.4693C36.1118 86.1777 39.7795 90 44.3055 90H55.7195C60.2455 90 63.9133 86.1777 63.9133 81.4693V76.8995C63.9133 76.7608 63.9059 76.6144 63.9059 76.4757L64.5221 75.8669C64.5221 75.8669 64.8009 75.5432 64.7862 74.9576V74.133V74.0868V73.2622C64.8009 72.6765 64.5221 72.3529 64.5221 72.3529L63.8986 71.7441L64.5221 71.1353C64.5221 71.1353 64.8009 70.8117 64.7862 70.226V69.4014V69.3552V68.5306C64.8009 67.945 64.5221 67.6213 64.5221 67.6213L63.8986 67.0125L64.5221 66.4037C64.5221 66.4037 64.8009 66.0801 64.7862 65.4944V64.6698V64.6236V63.799C64.8009 63.2134 64.5221 62.8897 64.5221 62.8897L63.8986 62.2809L64.5221 61.6722C64.5221 61.6722 64.8009 61.3485 64.7862 60.7628V59.9383V59.892V59.0675C64.8009 58.4818 64.5221 58.1581 64.5221 58.1581L64.016 57.6572H36.0091L35.5029 58.1581Z" fill="#F2F2F2"/>
<path d="M63.8986 38.5847L64.5221 37.9759C64.5221 37.9759 64.8009 37.6523 64.7862 37.0666V36.2421V36.1958V35.3713C64.8009 34.7856 64.5221 34.4619 64.5221 34.4619L63.8986 33.8531L64.5221 33.2443C64.5221 33.2443 64.8009 32.9207 64.7862 32.335V31.5105V31.4642V30.6397C64.8009 30.054 64.5221 29.7303 64.5221 29.7303L63.8986 29.1215H63.9059L64.6908 27.9811C64.6908 22.3247 62.6736 20.7373 62.6736 20.7373L54.6045 12.6766V10.1875H55.3821C55.9249 10.1875 56.3651 9.84846 56.3651 9.43233C56.3651 9.0162 55.9249 8.67712 55.3821 8.67712H55.3748C56.1303 8.12227 56.6291 7.20526 56.6291 6.16493V1.82636C56.6291 0.816849 53.6656 0 50.0125 0C46.3594 0 43.3959 0.816849 43.3959 1.82636V6.16493C43.3959 7.20526 43.8947 8.12227 44.6503 8.67712H44.6429C44.1001 8.67712 43.66 9.0162 43.66 9.43233C43.66 9.84846 44.1001 10.1875 44.6429 10.1875H45.4278V12.6766L37.3588 20.7373C37.3588 20.7373 35.3415 22.3324 35.3415 27.9811L36.1264 29.1215L35.5029 29.7303C35.5029 29.7303 35.2242 30.054 35.2388 30.6397V31.4642V31.5105V32.335C35.2242 32.9207 35.5029 33.2443 35.5029 33.2443L36.1264 33.8531L35.5029 34.4619C35.5029 34.4619 35.2242 34.7856 35.2388 35.3713V36.1958V36.2421V37.0666C35.2242 37.6523 35.5029 37.9759 35.5029 37.9759L36.1264 38.5847L36.1118 38.6001H63.9206L63.8986 38.5847Z" fill="#F2F2F2"/>
<path d="M71.4805 40.8652V55.3836H99.0546V40.8652H71.4805ZM81.8088 50.4979C82.0216 50.8832 82.5571 51.099 83.2906 51.099V53.0795C81.8675 53.0795 80.7305 52.5015 80.173 51.4843C79.6155 50.4748 79.7036 49.1493 80.4151 47.8547L80.7819 47.192L79.7916 46.5909L82.6378 45.8819L83.474 48.8257L82.4104 48.1784L82.0436 48.8411C81.6915 49.5115 81.5961 50.1203 81.8088 50.4979ZM84.0388 45.2423L82.403 44.2482C83.1146 42.9536 84.1635 42.2061 85.2785 42.2061C86.3935 42.2061 87.4425 42.9459 88.154 44.2482L88.6308 45.119L89.8045 44.5102L88.7849 47.3924L85.9901 46.483L86.9364 45.9898L86.5182 45.2269C86.1514 44.5642 85.704 44.1789 85.2785 44.1789C84.8531 44.1789 84.4056 44.5719 84.0388 45.2423ZM90.3767 51.492C89.8192 52.5015 88.6822 53.0872 87.2591 53.0872H86.753V54.3279L84.743 52.0931L86.753 49.8583V51.099H87.2591C87.9927 51.099 88.5281 50.8755 88.7409 50.4979C88.9536 50.1203 88.8656 49.5115 88.4988 48.8488L90.1346 47.8547C90.8462 49.157 90.9342 50.4748 90.3767 51.492Z" fill="#F2F2F2"/>
<path d="M70.7158 58.1581C70.7158 58.1581 70.4371 58.4818 70.4517 59.0675V59.892V59.9383V60.7628C70.4371 61.3485 70.7158 61.6722 70.7158 61.6722L71.3393 62.2809L70.7158 62.8897C70.7158 62.8897 70.4371 63.2134 70.4517 63.799V64.6236V64.6698V65.4944C70.4371 66.0801 70.7158 66.4037 70.7158 66.4037L71.3393 67.0125L70.7158 67.6213C70.7158 67.6213 70.4371 67.945 70.4517 68.5306V69.3552V69.4014V70.226C70.4371 70.8117 70.7158 71.1353 70.7158 71.1353L71.3393 71.7441L70.7158 72.3529C70.7158 72.3529 70.4371 72.6765 70.4517 73.2622V74.0868V74.133V74.9576C70.4371 75.5432 70.7158 75.8669 70.7158 75.8669L71.332 76.4757C71.3247 76.6144 71.3247 76.7531 71.3247 76.8995V81.4693C71.3247 86.1777 74.9924 90 79.5184 90H90.9324C95.4584 90 99.1262 86.1777 99.1262 81.4693V76.8995C99.1262 76.7608 99.1188 76.6144 99.1188 76.4757L99.735 75.8669C99.735 75.8669 100.014 75.5432 99.9991 74.9576V74.133V74.0868V73.2622C100.014 72.6765 99.735 72.3529 99.735 72.3529L99.1115 71.7441L99.735 71.1353C99.735 71.1353 100.014 70.8117 99.9991 70.226V69.4014V69.3552V68.5306C100.014 67.945 99.735 67.6213 99.735 67.6213L99.1115 67.0125L99.735 66.4037C99.735 66.4037 100.014 66.0801 99.9991 65.4944V64.6698V64.6236V63.799C100.014 63.2134 99.735 62.8897 99.735 62.8897L99.1115 62.2809L99.735 61.6722C99.735 61.6722 100.014 61.3485 99.9991 60.7628V59.9383V59.892V59.0675C100.014 58.4818 99.735 58.1581 99.735 58.1581L99.2289 57.6572H71.222L70.7158 58.1581Z" fill="#F2F2F2"/>
<path d="M99.1115 38.5847L99.735 37.9759C99.735 37.9759 100.014 37.6523 99.9991 37.0666V36.2421V36.1958V35.3713C100.014 34.7856 99.735 34.4619 99.735 34.4619L99.1115 33.8531L99.735 33.2443C99.735 33.2443 100.014 32.9207 99.9991 32.335V31.5105V31.4642V30.6397C100.014 30.054 99.735 29.7303 99.735 29.7303L99.1115 29.1215H99.1188L99.9037 27.9811C99.9037 22.3247 97.8865 20.7373 97.8865 20.7373L89.8174 12.6766V10.1875H90.595C91.1378 10.1875 91.5779 9.84846 91.5779 9.43233C91.5779 9.0162 91.1378 8.67712 90.595 8.67712H90.5877C91.3432 8.12227 91.842 7.20526 91.842 6.16493V1.82636C91.842 0.816849 88.8785 0 85.2254 0C81.5723 0 78.6088 0.816849 78.6088 1.82636V6.16493C78.6088 7.20526 79.1076 8.12227 79.8632 8.67712H79.8558C79.313 8.67712 78.8729 9.0162 78.8729 9.43233C78.8729 9.84846 79.313 10.1875 79.8558 10.1875H80.6407V12.6766L72.5717 20.7373C72.5717 20.7373 70.5544 22.3324 70.5544 27.9811L71.3393 29.1215L70.7158 29.7303C70.7158 29.7303 70.4371 30.054 70.4517 30.6397V31.4642V31.5105V32.335C70.4371 32.9207 70.7158 33.2443 70.7158 33.2443L71.3393 33.8531L70.7158 34.4619C70.7158 34.4619 70.4371 34.7856 70.4517 35.3713V36.1958V36.2421V37.0666C70.4371 37.6523 70.7158 37.9759 70.7158 37.9759L71.3393 38.5847L71.3247 38.6001H99.1335L99.1115 38.5847Z" fill="#F2F2F2"/>
</svg>
