<svg width="90" height="90" viewBox="0 0 90 90" fill="none" xmlns="http://www.w3.org/2000/svg">
<path d="M84.4918 3.82217H60.7598V0H29.2303V3.82217H5.49817C2.45918 3.82217 0 6.57146 0 9.96895C0 13.3664 2.45918 16.1157 5.49817 16.1157H84.5018C87.5408 16.1157 90 13.3664 90 9.96895C89.99 6.57146 87.5308 3.82217 84.4918 3.82217Z" fill="#F2F2F2"/>
<path d="M13.2462 84.3444C13.4861 87.4848 16.3652 89.9994 19.6741 89.9994H70.3172C73.6261 89.9994 76.5051 87.4848 76.7451 84.3444L81.6534 19.6133H8.33789L13.2462 84.3444ZM63.2596 65.5129C61.2402 69.4357 57.1116 71.682 51.9333 71.682H50.0939V76.4877L42.7864 67.8487L50.0939 59.2097V64.0153H51.9333C54.5924 64.0153 56.5618 63.166 57.3215 61.6796C58.0913 60.1932 57.7614 57.8686 56.4318 55.2869L62.3699 51.4536C64.959 56.4716 65.2789 61.5902 63.2596 65.5129ZM44.7157 29.6158C48.7644 29.6158 52.5731 32.488 55.1523 37.4948L56.8917 40.8699L61.1403 38.523L57.4315 49.6654L47.2749 46.1562L50.7237 44.2563L49.2042 41.317C47.8747 38.7465 46.2352 37.2601 44.6958 37.2601C43.1663 37.2601 41.5168 38.7353 40.1873 41.317L34.2492 37.4836C36.8684 32.488 40.6771 29.6158 44.7157 29.6158ZM35.1589 43.8204L38.1879 55.2199L34.3292 52.7276L32.9996 55.2981C31.6701 57.8686 31.3502 60.2043 32.11 61.6907C32.8797 63.1771 34.839 64.0265 37.4981 64.0265V71.6932C32.3199 71.6932 28.1913 69.4468 26.1719 65.5241C24.1526 61.6013 24.4725 56.4827 27.0616 51.4759L28.3912 48.9055L24.8024 46.5809L35.1589 43.8204Z" fill="#F2F2F2"/>
</svg>
