<svg width="90" height="90" viewBox="0 0 90 90" fill="none" xmlns="http://www.w3.org/2000/svg">
<path d="M45.8865 73.9834C24.3637 73.9834 6.9082 81.1524 6.9082 89.9997H84.8549C84.8648 81.1524 67.4193 73.9834 45.8865 73.9834Z" fill="#F2F2F2"/>
<path d="M71.9158 16.1869C66.4728 17.6093 62.4853 20.8713 61.8672 24.048C62.6149 23.6403 63.3625 23.2705 64.1201 22.948C65.3463 22.417 66.6024 21.9808 67.8684 21.6394C73.9794 20.0274 80.9676 22.161 80.9676 22.161C80.9676 22.161 71.1881 22.673 65.8248 26.0868C64.9177 26.6653 63.9606 27.2247 63.0535 27.879C65.3563 30.2118 70.4504 31.0083 75.8037 29.6049C82.3831 27.879 89.9994 18.6713 89.9994 18.6713C89.9994 18.6713 78.5052 14.461 71.9158 16.1869Z" fill="#F2F2F2"/>
<path d="M22.9783 26.5902C22.2505 26.1919 13.2686 22.1807 13.2686 22.1807C13.2686 22.1807 21.2138 22.1807 24.5235 23.5557C25.7696 24.0677 27.0356 24.6367 28.2618 25.3384C28.3814 21.8583 24.0948 18.0747 18.0536 16.5385C11.4542 14.86 0 19.1557 0 19.1557C0 19.1557 7.68601 28.3065 14.2854 29.985C19.0904 31.2082 23.6761 30.6583 26.2182 28.8471C25.1814 27.9557 24.0948 27.2065 22.9783 26.5902Z" fill="#F2F2F2"/>
<path d="M42.915 37.6088C43.0745 37.8554 43.244 38.1209 43.4035 38.3769C43.7823 36.0062 44.221 32.8675 44.4901 29.7097C44.5599 28.9132 44.6097 28.1071 44.6596 27.3201C44.6995 26.533 44.7393 25.7554 44.7493 25.0063C44.7593 24.627 44.7593 24.2571 44.7593 23.8968C44.7593 23.5365 44.7593 23.1856 44.7493 22.8347C44.7493 22.4934 44.7294 22.152 44.7194 21.8296C44.7094 21.5072 44.6895 21.1942 44.6696 20.8908C44.6496 20.5873 43.902 16.8037 43.902 16.8037C43.902 16.8037 43.6527 20.5873 43.6128 20.8718C43.5829 21.1658 43.5431 21.4692 43.5032 21.7727C43.4633 22.0856 43.4135 22.408 43.3636 22.7399C43.3138 23.0718 43.254 23.4132 43.1842 23.7546C43.1244 24.1054 43.0546 24.4563 42.9748 24.8166C42.8353 25.5373 42.6658 26.277 42.4864 27.0261C42.3069 27.7752 42.1076 28.5339 41.9082 29.2925C41.4596 30.952 40.9611 32.6019 40.4727 34.1192C40.9512 34.7545 41.4396 35.4183 41.9082 36.1106C42.2571 36.6321 42.5861 37.1252 42.915 37.6088Z" fill="#F2F2F2"/>
<path d="M75.3347 21.9887C75.1553 21.9887 74.936 21.9697 74.6668 21.9792C74.4076 21.9792 74.0986 21.9887 73.7696 21.9887C73.4307 22.0077 73.0618 22.0266 72.6531 22.0551C72.2444 22.1025 71.8058 22.1215 71.3372 22.1973C70.4002 22.3111 69.3435 22.5197 68.217 22.8232C67.0905 23.1266 65.8842 23.5344 64.6581 24.0654C63.4319 24.5965 62.1758 25.2603 60.9297 26.0284C59.6936 26.8059 58.4674 27.6878 57.3011 28.6646C56.1347 29.6413 55.0082 30.7033 53.9415 31.8223C51.8281 34.0602 49.964 36.5068 48.3889 38.8964C47.5016 40.243 46.7141 41.5705 46.0063 42.8317C45.458 43.818 44.9596 44.7662 44.5209 45.6576C44.4213 45.8662 44.3216 46.0654 44.2219 46.274C44.4512 46.7292 44.6804 47.1938 44.9097 47.649C44.6804 47.1843 44.4512 46.7292 44.2219 46.274C43.9727 45.7809 43.7135 45.2783 43.4443 44.7852C43.1253 44.1878 42.8063 43.5998 42.4674 43.0214C41.7396 41.7317 40.972 40.4705 40.1745 39.2378C39.8555 38.7542 39.5365 38.28 39.2075 37.8059C38.3303 36.5352 37.4131 35.3214 36.4661 34.174C35.1602 32.5999 33.7845 31.1585 32.3689 29.8973C30.9633 28.6361 29.5178 27.5551 28.1022 26.6921C26.6866 25.8197 25.301 25.1654 24.0449 24.7008C22.7788 24.2361 17.7246 23.3922 17.7246 23.3922C17.7246 23.3922 22.4997 24.9189 23.6162 25.5352C24.7327 26.1516 25.919 26.9577 27.0953 27.9534C28.2717 28.949 29.438 30.1344 30.5446 31.4904C31.6511 32.8369 32.6979 34.3542 33.6648 35.9757C34.6318 37.5973 35.519 39.3421 36.3265 41.1533C37.134 42.9645 37.8717 44.8421 38.5197 46.7481C39.8256 50.5602 40.8424 54.4575 41.62 58.1558C42.3976 61.8446 42.9459 65.3343 43.3247 68.3213C43.7135 71.3084 43.9328 73.8023 44.0524 75.5377C44.1122 76.4006 44.1521 77.0833 44.172 77.529C44.182 77.7471 44.192 77.9178 44.192 78.0316C44.192 78.1359 44.192 78.1928 44.192 78.1928C44.2019 78.4488 44.2319 78.7333 44.2817 78.9894C44.8101 81.7583 47.6013 83.5885 50.5023 83.0764C53.4132 82.5739 55.3372 79.9187 54.7989 77.1592L54.7789 77.0644C54.7789 77.0644 54.769 76.9885 54.739 76.8463C54.7091 76.7135 54.6693 76.5144 54.6194 76.2584C54.5098 75.7558 54.3503 75.0256 54.1309 74.1058C53.6923 72.2756 53.0344 69.6868 52.1272 66.6144C51.22 63.5515 50.0537 59.9955 48.6182 56.2593C48.0599 54.7989 47.4518 53.3102 46.7938 51.8024C46.3951 50.8826 45.9764 49.9627 45.5477 49.0334C45.9764 49.9533 46.3951 50.8826 46.7938 51.8024C47.1228 50.6645 47.6013 49.1283 48.2693 47.336C48.2892 47.2791 48.3091 47.2317 48.3291 47.1749C49.0767 45.1645 50.0636 42.8507 51.2998 40.4611C52.5359 38.0714 54.0512 35.5964 55.8157 33.3016C56.7029 32.1542 57.65 31.0542 58.6568 30.0301C59.6637 29.0059 60.7204 28.0671 61.817 27.2232C62.9036 26.3792 64.03 25.649 65.1466 25.0327C66.2631 24.4163 67.3696 23.9137 68.4363 23.5249C69.493 23.1361 70.4899 22.8327 71.397 22.6335C71.8456 22.5197 72.2743 22.4534 72.6731 22.368C73.0718 22.3111 73.4407 22.2542 73.7696 22.2068C74.0986 22.1689 74.3977 22.1404 74.6569 22.112C74.9161 22.0835 75.1354 22.0741 75.3148 22.0646C75.6737 22.0361 75.8631 22.0266 75.8631 22.0266C75.8631 22.0266 75.6936 21.9982 75.3347 21.9887Z" fill="#F2F2F2"/>
<path d="M51.2998 13.5603C51.24 7.39654 43.7733 0 43.7733 0C43.7733 0 36.4562 7.51979 36.516 13.6836C36.5658 18.662 38.769 22.8629 41.7696 24.2758C41.8194 24.0103 41.8693 23.7827 41.8992 23.5646C41.959 23.2232 42.0188 22.9008 42.0687 22.5689C42.1185 22.2655 42.1684 21.962 42.2082 21.6301C42.2481 21.3266 42.288 21.0422 42.3179 20.7577C42.3478 20.5111 43.6537 12.65 43.6537 12.65C43.6537 12.65 46.0363 17.2586 45.9366 20.8146C45.9266 21.1275 45.9765 21.4594 45.9964 21.7913C46.0163 22.1517 46.0263 22.493 46.0263 22.8249C46.0363 23.1758 46.0363 23.5456 46.0363 23.9059C46.0363 24.0387 46.0363 24.181 46.0363 24.3327C49.1266 22.9766 51.3497 18.662 51.2998 13.5603Z" fill="#F2F2F2"/>
</svg>
