<svg width="60" height="90" viewBox="0 0 60 90" fill="none" xmlns="http://www.w3.org/2000/svg">
<path d="M16.6175 81.9381H29.8842H30.0993H43.366C44.3229 81.3258 44.9034 80.3463 44.9034 79.3007C44.9034 78.2458 44.3121 77.2568 43.3338 76.6445H16.6497C15.6714 77.2474 15.0801 78.2364 15.0801 79.3007C15.0801 80.3463 15.6606 81.3258 16.6175 81.9381Z" fill="#F2F2F2"/>
<path d="M30.8081 47.6331L30.9908 52.2768C36.9147 51.6739 41.5806 45.7964 41.5806 38.6472C41.5806 32.2799 33.0443 21.3348 29.991 17.6143C26.9269 21.3348 18.3906 32.2893 18.3906 38.6472C18.3906 45.7964 23.0566 51.6739 28.9804 52.2768L29.1739 47.4353L23.6264 41.944L29.2384 45.7116L29.4534 40.3239L23.5296 34.5687L29.5179 38.6755L29.819 30.9047C29.819 30.8199 29.905 30.7634 29.991 30.7634C30.077 30.7634 30.1522 30.8293 30.1522 30.9047L30.4533 38.6567L36.2373 34.5687L30.5285 40.3239L30.7436 45.8152L36.3018 41.9063C36.3341 41.8874 36.3663 41.8874 36.3878 41.9157C36.4094 41.9345 36.4094 41.9628 36.3878 41.991L30.8081 47.6331Z" fill="#F2F2F2"/>
<path d="M15.0801 71.2373C15.0801 72.2828 15.6606 73.2624 16.6175 73.8747H43.366C44.3229 73.2624 44.9034 72.2828 44.9034 71.2373C44.9034 70.0976 44.2154 69.0332 43.0973 68.4492H30.4003C30.282 68.4775 30.1638 68.4963 30.0455 68.4963C29.8842 68.5057 29.723 68.4869 29.5725 68.4492H16.8863C15.7681 69.0332 15.0801 70.0976 15.0801 71.2373Z" fill="#F2F2F2"/>
<path d="M29.99 0C21.4107 0.376766 13.2614 3.61696 7.49885 8.9482C0.94072 15.0141 -1.46751 24 0.876214 33.5793C2.2846 39.3156 5.69268 43.7237 9.29427 48.3957C10.6382 50.1288 12.025 51.9278 13.3259 53.8211C14.7881 55.9498 14.9493 58.3046 15.0998 60.3862C15.2181 62.044 15.3256 63.6076 16.0352 64.898C16.2072 65.2088 16.4007 65.4632 16.6265 65.6798H28.4741L28.9042 54.6594C21.5289 54.0283 15.6911 47.0958 15.6911 38.6562C15.6911 30.1413 28.3773 15.5134 28.9257 14.8917C29.1837 14.5997 29.5815 14.4301 30.0008 14.4301C30.42 14.4301 30.8178 14.5997 31.0759 14.8917C31.6134 15.5134 44.3104 30.1413 44.3104 38.6562C44.3104 47.0958 38.4833 54.0283 31.0974 54.6594L31.5274 65.6798H43.375C43.6008 65.4632 43.7943 65.2088 43.9664 64.898C44.6759 63.6076 44.7834 62.044 44.9017 60.3862C45.0415 58.3046 45.2135 55.9498 46.6756 53.8211C47.9765 51.9373 49.3634 50.1382 50.7072 48.3957C54.3196 43.7237 57.7277 39.3156 59.1253 33.5793C61.469 24 59.05 15.0236 52.5027 8.9482C46.7186 3.60754 38.5586 0.376766 29.99 0Z" fill="#F2F2F2"/>
<path d="M43.4412 84.7061H30.0992H29.8842H16.7571C15.7788 85.3089 15.1875 86.2979 15.1875 87.3623C15.1875 88.4078 15.7681 89.3874 16.7249 89.9996H43.4842C44.4411 89.3874 45.0216 88.4078 45.0216 87.3623C45.0109 86.2979 44.4196 85.3089 43.4412 84.7061Z" fill="#F2F2F2"/>
</svg>
