<svg width="90" height="90" viewBox="0 0 90 90" fill="none" xmlns="http://www.w3.org/2000/svg">
<path d="M46.2202 0C46.2202 0 31.4629 21.6454 31.4629 29.9046C31.4629 37.2109 36.6375 43.2907 43.4761 44.5878L43.9378 38.6228L34.9649 29.2517L44.1643 35.6756L44.5824 30.3282L37.6045 23.8778L44.7741 27.8222L45.1748 22.7042L39.312 18.301L45.3142 20.86L46.2202 9.1417L47.1262 20.8071L52.8061 18.0804C52.8148 18.0804 52.8235 18.0804 52.8235 18.0893C52.8235 18.0981 52.8235 18.0981 52.8235 18.1069L47.2743 22.6954L47.675 27.8133L54.3655 24.1425C54.3742 24.1425 54.3829 24.1425 54.3829 24.1514C54.3829 24.1602 54.3829 24.1602 54.3829 24.169L47.8667 30.3105L48.2848 35.6844L57.4842 29.2605L48.5026 38.6228L48.9643 44.5878C55.8029 43.2819 60.9775 37.2021 60.9775 29.9046C60.9775 21.6454 46.2202 0 46.2202 0Z" fill="#F2F2F2"/>
<path d="M41.885 90.0003V79.4026V53.9188L28.3473 44.8036C28.3473 44.8036 22.345 49.4804 24.9585 55.4013L29.9589 59.2044L29.5582 66.3343L16.4909 56.8043L10.1663 22.0464C10.1663 22.0464 6.30714 18.861 0 18.9757L7.2567 66.9961L19.9494 79.1291V89.9915H41.885V90.0003Z" fill="#F2F2F2"/>
<path d="M48.1152 90.0003V79.4026V53.9188L61.6529 44.8036C61.6529 44.8036 67.6552 49.4804 65.0417 55.4013L60.0413 59.2044L60.442 66.3343L73.5093 56.8043L79.8339 22.0464C79.8339 22.0464 83.6931 18.861 90.0002 18.9757L82.7435 66.9961L70.0508 79.1291V89.9915H48.1152V90.0003Z" fill="#F2F2F2"/>
</svg>
