<svg width="90" height="90" viewBox="0 0 90 90" fill="none" xmlns="http://www.w3.org/2000/svg">
<path d="M0 0V90H90V0H0ZM26.6279 57.9147C27.7414 59.635 30.6201 60.6215 34.5036 60.6215V69.5C26.9403 69.5 20.9113 66.9014 17.9511 62.3539C14.9909 57.8184 15.4662 51.8875 19.2547 46.0767L21.1964 43.0932L15.955 40.3983L31.0818 37.2223L35.5084 50.4197L29.8733 47.5324L27.9315 50.5039C25.9762 53.4995 25.5009 56.1943 26.6279 57.9147ZM38.455 34.347L29.7782 29.9078C33.5667 24.1091 39.1204 20.7766 45.0407 20.7766C50.9611 20.7766 56.5148 24.1091 60.3033 29.9078L62.8561 33.8177L69.0751 31.0988L63.6572 44.0075L48.8021 39.9532L53.8534 37.7517L51.64 34.347C49.6983 31.3635 47.2948 29.6551 45.0543 29.6551C42.8002 29.6551 40.3968 31.3635 38.455 34.347ZM72.1304 62.3539C69.1702 66.8894 63.1412 69.5 55.5778 69.5H52.8893V75.0701L42.2164 65.0608L52.8893 55.0515V60.6215H55.5778C59.4614 60.6215 62.3401 59.635 63.4535 57.9147C64.567 56.1943 64.1053 53.4995 62.15 50.516L70.8268 46.0767C74.6153 51.8875 75.0905 57.8184 72.1304 62.3539Z" fill="#F2F2F2"/>
</svg>
