<svg width="72" height="73" viewBox="0 0 72 73" fill="none" xmlns="http://www.w3.org/2000/svg">
<path d="M57.3603 2.5498H14.9303C7.96599 2.5498 2.32031 8.19549 2.32031 15.1598V57.5898C2.32031 64.5541 7.96599 70.1998 14.9303 70.1998H57.3603C64.3246 70.1998 69.9703 64.5541 69.9703 57.5898V15.1598C69.9703 8.19549 64.3246 2.5498 57.3603 2.5498Z" stroke="#B0BFC6" stroke-width="4" stroke-linecap="round" stroke-linejoin="round"/>
<path d="M39.3706 32.0996H46.8227L45.2625 38.8896H39.3706H38.8706V39.3896V58.6996H30.4306V39.3896V38.8896H29.9306H24.1406V32.0996H29.9306H30.4306V31.5996V25.1496C30.4306 21.8346 31.357 19.075 33.2019 17.1465C35.0428 15.2221 37.8611 14.0596 41.7806 14.0596H46.9506V21.2596H44.889L44.899 21.2496H43.6906C41.9857 21.2496 40.7574 21.8971 39.9666 22.8845C39.1894 23.855 38.8706 25.1074 38.8706 26.2796V31.5996V32.0996H39.3706Z" fill="#B0BFC6" stroke="#B0BFC6"/>
</svg>
