<svg width="72" height="72" viewBox="0 0 72 72" fill="none" xmlns="http://www.w3.org/2000/svg">
<mask id="path-1-inside-1_3279_369" fill="white">
<path d="M44.2402 35.77C44.2602 35.87 44.2702 35.97 44.2602 36.08C44.2802 35.98 44.2802 35.87 44.2402 35.77Z"/>
</mask>
<path d="M44.2402 35.77C44.2602 35.87 44.2702 35.97 44.2602 36.08C44.2802 35.98 44.2802 35.87 44.2402 35.77Z" fill="#B0BFC6"/>
<path d="M44.2402 35.77L45.1687 35.3986L43.2597 35.9661L44.2402 35.77ZM44.2602 36.08L43.2643 35.9895L45.2408 36.2761L44.2602 36.08ZM43.2597 35.9661C43.2634 35.9847 43.264 35.9928 43.2641 35.9942C43.2642 35.995 43.2641 35.9946 43.2642 35.9933C43.2642 35.992 43.2642 35.9907 43.2643 35.9895L45.2561 36.1706C45.2771 35.9402 45.2541 35.7405 45.2208 35.5739L43.2597 35.9661ZM45.2408 36.2761C45.286 36.0503 45.3018 35.7313 45.1687 35.3986L43.3118 36.1414C43.2587 36.0087 43.2745 35.9097 43.2797 35.8839L45.2408 36.2761Z" fill="#F2F2F2" mask="url(#path-1-inside-1_3279_369)"/>
<path d="M36.5399 18.9399C14.7999 18.9399 14.4199 20.8699 14.4199 35.9699C14.4199 51.0699 14.7999 52.9999 36.5399 52.9999C58.2799 52.9999 58.6599 51.0699 58.6599 35.9699C58.6599 20.8699 58.2799 18.9399 36.5399 18.9399ZM43.5899 37.0899L33.6099 41.9099C32.8099 42.2999 31.8799 41.7099 31.8799 40.8199V31.3899C31.8799 30.5099 32.7899 29.9199 33.5899 30.2899L43.5699 34.8899C43.9599 35.0699 44.1699 35.3999 44.2399 35.7599C44.2799 35.8599 44.2799 35.9699 44.2599 36.0699C44.2299 36.4799 44.0199 36.8699 43.5899 37.0799V37.0899Z" fill="#B0BFC6"/>
<path d="M57.04 2.14014H14.61C7.64569 2.14014 2 7.78583 2 14.7501V57.1801C2 64.1444 7.64569 69.7901 14.61 69.7901H57.04C64.0043 69.7901 69.65 64.1444 69.65 57.1801V14.7501C69.65 7.78583 64.0043 2.14014 57.04 2.14014Z" stroke="#B0BFC6" stroke-width="4" stroke-linecap="round" stroke-linejoin="round"/>
</svg>
