<svg width="72" height="72" viewBox="0 0 72 72" fill="none" xmlns="http://www.w3.org/2000/svg">
<path d="M14.8401 26.02C15.2101 24.07 15.5601 22.12 16.6201 20.38C19.0401 16.43 22.8301 14.91 27.1901 14.81C33.1401 14.66 39.1001 14.67 45.0601 14.81C49.1001 14.91 52.7001 16.24 55.1601 19.74C56.7401 22 57.3301 24.58 57.3701 27.25C57.4601 32.97 57.5001 38.7 57.3701 44.42C57.2601 49.03 55.6601 52.96 51.3501 55.3C49.3601 56.38 47.1701 56.85 44.9401 56.88C39.0601 56.95 33.1801 57.01 27.3001 56.88C22.8901 56.78 19.0601 55.29 16.6101 51.3C15.5501 49.57 15.2001 47.61 14.8301 45.66V26.02H14.8401ZM36.1701 18.84C33.2501 18.84 30.3301 18.78 27.4101 18.85C22.8501 18.96 20.0501 21.09 19.2201 25.02C19.0401 25.85 18.9101 26.71 18.9101 27.56C18.8801 33.09 18.8101 38.62 18.9201 44.15C19.0301 49.65 21.8101 52.59 27.1201 52.79C33.1101 53.01 39.1101 52.99 45.1001 52.79C49.5201 52.64 52.1501 50.52 52.9901 46.7C53.1401 46.02 53.2801 45.32 53.2901 44.62C53.3201 38.32 53.6701 32.01 53.1001 25.72C52.7601 21.99 50.2701 19.56 46.5501 19.05C43.1001 18.58 39.6301 18.91 36.1701 18.84Z" fill="#B0BFC6"/>
<path d="M47.1506 35.91C47.1306 41.85 42.2006 46.73 36.1506 46.8C30.0806 46.87 25.0406 41.86 25.0606 35.77C25.0806 29.78 30.1906 24.76 36.1706 24.88C42.3106 25 47.1606 29.88 47.1406 35.91H47.1506ZM43.0606 35.86C43.0606 32.08 39.9506 28.98 36.1306 28.96C32.3306 28.94 29.1706 32.05 29.1606 35.82C29.1606 39.6 32.2706 42.7 36.0906 42.72C39.8906 42.74 43.0506 39.63 43.0606 35.86Z" fill="#B0BFC6"/>
<path d="M47.4496 21.99C48.9096 21.97 50.1496 23.18 50.1496 24.63C50.1496 26.01 48.9496 27.2 47.5396 27.24C46.0796 27.28 44.8096 26.09 44.7896 24.65C44.7596 23.2 45.9596 22.01 47.4596 21.99H47.4496Z" fill="#B0BFC6"/>
<path fill-rule="evenodd" clip-rule="evenodd" d="M14.9303 4C9.07056 4 4.32031 8.75026 4.32031 14.61V57.04C4.32031 62.8997 9.07056 67.65 14.9303 67.65H57.3603C63.22 67.65 67.9703 62.8997 67.9703 57.04V14.61C67.9703 8.75026 63.22 4 57.3603 4H14.9303ZM0.320312 14.61C0.320312 6.54112 6.86141 0 14.9303 0H57.3603C65.4292 0 71.9703 6.54112 71.9703 14.61V57.04C71.9703 65.1089 65.4292 71.65 57.3603 71.65H14.9303C6.86141 71.65 0.320312 65.1089 0.320312 57.04V14.61Z" fill="#B0BFC6"/>
</svg>
