<svg width="41" height="41" viewBox="0 0 41 41" fill="none" xmlns="http://www.w3.org/2000/svg">
<path d="M13.1507 7.96833C11.9857 8.40995 10.9295 9.09609 10.0086 10.0097C7.86785 12.1574 6.94864 15.2217 7.54979 18.2062C7.61386 18.5242 7.89335 18.7436 8.20553 18.7436C8.24933 18.7436 8.29379 18.7393 8.33824 18.7305C8.70076 18.6573 8.93547 18.3042 8.86257 17.942C8.34969 15.3969 9.13258 12.785 10.9543 10.9577C11.7385 10.1794 12.6372 9.59492 13.6253 9.22031C13.9712 9.08923 14.1451 8.70285 14.014 8.357C13.8833 8.01115 13.4962 7.83725 13.1507 7.96833ZM16.3202 7.36914C16.2444 7.36914 16.1564 7.37274 16.0803 7.38549C15.7158 7.44792 15.4589 7.79508 15.521 8.15956C15.5769 8.48612 15.8508 8.71821 16.1692 8.71821C16.2061 8.71821 16.2437 8.71494 16.2816 8.7084L16.3202 8.70808C16.6899 8.70808 16.9897 8.40832 16.9897 8.03861C16.9897 7.6689 16.6899 7.36914 16.3202 7.36914Z" fill="#BBBBBB"/>
<path d="M27.3739 22.1912C28.3045 20.4305 28.8066 18.4623 28.8066 16.4071C28.8066 13.0999 27.5145 9.98685 25.178 7.64371C20.3445 2.81017 12.4783 2.81017 7.64468 7.64371C2.81115 12.4773 2.81115 20.3435 7.64468 25.1771C10.0615 27.5938 13.2348 28.7989 16.408 28.7989C18.403 28.7989 20.3914 28.3236 22.1989 27.3729L27.7555 32.9295L32.9305 27.7478L27.3739 22.1912ZM8.59536 24.2264C4.28398 19.9151 4.28398 12.9057 8.59536 8.59434C10.751 6.43867 13.5762 5.36084 16.408 5.36084C19.2399 5.36084 22.0717 6.43867 24.2274 8.59434C26.3162 10.6764 27.4677 13.4547 27.4677 16.4071C27.4677 19.3661 26.3162 22.1444 24.2274 24.2264C19.916 28.5378 12.9067 28.5378 8.59536 24.2264ZM35.0795 29.8968L33.8744 28.6918L28.6995 33.8735L29.9045 35.0785C30.6141 35.7881 31.5514 36.1497 32.4887 36.1497C33.4259 36.1497 34.3632 35.7881 35.0795 35.0785C36.5055 33.6525 36.5055 31.3228 35.0795 29.8968Z" fill="#BBBBBB"/>
</svg>
